# xmcd
#
# Track frame offsets: 
#        150
#        26990
#        46315
#        72887
#        89385
#        109060
#        130500
#        157865
#        181892
#        210020
#        228452
#        257032
#
# Disc length: 3730 seconds
#
# Revision: 1
# Processed by: cddbd v1.5.2PL0 Copyright (c) Steve Scherf et al.
# Submitted via: ExactAudioCopy v0.99pb4
#
DISCID=930e900c
DTITLE=Walter "Wolfman" Washington - On The Prowl
DYEAR=2000
DGENRE=Blues
TTITLE0=You Got Me Worried
TTITLE1=Can I Change My Mind?
TTITLE2=Out Of The Dark
TTITLE3=It Was Fun While It Lasted
TTITLE4=Don't Say Goodbye
TTITLE5=I'm Tiptoeing Through
TTITLE6=It Doesn't Really Matter
TTITLE7=Nobody's Fault But Mine
TTITLE8=Hello Stranger
TTITLE9=On The Prowl
TTITLE10=You Can Stay But The Noise Must Go
TTITLE11=Without You
EXTD=Bullseye Blues Basics BBB 9630\ncopyright Rounder Records 2000
EXTT0=
EXTT1=
EXTT2=
EXTT3=
EXTT4=
EXTT5=
EXTT6=
EXTT7=
EXTT8=
EXTT9=
EXTT10=
EXTT11=
PLAYORDER=
